<?xml version="1.0" encoding="UTF-8"?>
<svg width="158px" height="171px" viewBox="0 0 158 171" version="1.1" xmlns="http://www.w3.org/2000/svg" xmlns:xlink="http://www.w3.org/1999/xlink">
    <!-- Generator: Sketch 48.2 (47327) - http://www.bohemiancoding.com/sketch -->
    <title>logo</title>
    <desc>Created with Sketch.</desc>
    <defs>
        <rect id="path-1" x="0" y="0.581" width="157.398" height="170.31"/>
        <rect id="path-3" x="0" y="0.581" width="175.398" height="179.31"/>
        <path d="M82.898,94.008 C82.573,94.969 82.898,97.016 82.898,98.254 L82.898,111.082 C88.009,108.527 92.836,105.213 97.761,102.766 L97.761,170.891 C102.704,168.254 107.97,165.174 112.89,162.221 L112.89,76.668 C112.801,76.668 112.786,76.596 112.713,76.579 C107.95,79.347 103.028,82.126 97.585,85.25 C94.008,87.301 90.281,89.543 86.524,91.708 C85.537,92.277 83.122,93.35 82.898,94.008 Z M29.683,102.969 C33.363,105.016 36.974,107.131 40.564,109.268 L44.105,111.317 L44.105,111.374 L44.105,127.919 L44.105,127.921 L44.099,127.919 C43.6,127.954 42.952,127.48 42.335,127.122 C41.294,126.52 40.192,125.864 39.114,125.229 L29.683,120.145 L29.683,119.69 L29.683,102.969 Z M15.595,76.854 C10.596,74.097 5.108,70.734 0,68.085 L0,85.337 C4.92,88.261 9.969,91.056 14.864,94.007 L14.864,110.728 C9.857,107.98 5.097,104.982 0,102.324 L0,119.576 C4.911,122.51 10.061,125.205 14.864,128.246 L14.864,145.232 C19.887,148.084 24.75,151.093 29.904,153.814 L29.904,136.918 C34.837,139.594 39.63,142.406 44.325,145.322 L44.325,162.22 C49.246,165.173 54.477,168.288 59.454,170.89 L59.454,153.992 C63.23,156.013 66.969,158.267 70.601,160.361 C71.815,161.06 72.994,161.884 74.317,162.308 L74.317,145.144 C69.419,142.197 64.325,139.447 59.454,136.474 L59.454,119.753 C64.451,122.45 69.4,125.671 74.317,128.157 L74.317,110.905 C69.374,108.005 64.287,105.247 59.454,102.233 L59.454,85.25 C55.176,82.758 50.523,79.996 46.271,77.552 C45.657,77.199 44.914,76.667 44.413,76.756 C44.207,82.183 44.384,87.991 44.325,93.565 C39.427,90.825 34.599,88.016 29.904,85.072 L29.904,68.174 C24.965,65.209 19.971,62.3 14.864,59.504 C14.864,65.166 15.595,71.191 15.595,76.854 Z M78.564,68.881 C58.826,57.505 39.178,46.042 19.375,34.731 C14.396,37.626 9.349,40.452 4.424,43.401 C27.862,57.172 52.562,71.037 76.263,84.895 C77.046,85.352 78.211,86.234 78.652,86.223 C79.02,86.213 79.85,85.543 80.51,85.16 C87.492,81.119 94.246,77.302 101.036,73.393 C103.521,71.962 105.982,70.523 108.379,68.97 C103.343,66.131 98.483,63.117 93.339,60.388 C88.395,63.199 83.527,66.088 78.564,68.881 Z M143.591,48.798 C146.68,47 149.848,45.321 152.792,43.313 C147.807,40.456 142.895,37.52 137.841,34.731 C130.399,38.939 123.118,43.306 115.634,47.471 C110.799,44.667 105.85,41.979 101.124,39.066 C108.497,34.791 116.006,30.65 123.242,26.237 C118.201,23.405 113.337,20.395 108.202,17.655 C100.736,21.839 93.454,26.207 85.996,30.396 C81.148,27.604 76.27,24.845 71.486,21.991 C78.822,17.708 86.317,13.584 93.516,9.163 C88.626,6.237 83.661,3.389 78.652,0.581 C66.373,7.529 53.637,14.789 41.405,22.08 C66.162,36.337 90.897,50.623 115.634,64.9 C124.962,59.535 134.379,54.162 143.591,48.798 Z M157.305,133.289 C157.305,117.168 157.305,101.064 157.305,85.249 C156.268,85.419 155.456,86.15 154.563,86.664 C148.067,90.393 141.477,94.318 135.098,97.812 L135.098,81.091 C142.446,76.73 149.991,72.567 157.305,68.173 L157.305,51.098 C157.215,51.099 157.2,51.026 157.127,51.01 C146.113,57.347 133.559,64.412 122.182,71.093 C121.409,71.547 120.102,72.204 119.969,72.597 C119.757,73.221 119.969,74.706 119.969,75.782 C119.968,91.903 119.969,108.008 119.969,123.823 C120.989,123.622 121.819,122.932 122.712,122.407 C129.184,118.612 135.826,114.823 142.176,111.348 L142.176,127.981 C138.477,130.127 134.764,132.323 131.028,134.44 C127.283,136.561 123.537,138.669 119.969,140.987 L119.969,158.063 C126.137,154.749 132.334,151.108 138.725,147.446 C143.975,144.438 149.675,141.089 155.092,137.979 C155.801,137.571 157.169,136.862 157.305,136.475 C157.518,135.861 157.305,134.365 157.305,133.289 Z" id="path-5"/>
        <linearGradient x1="22.8920995%" y1="72.7618661%" x2="77.097457%" y2="27.3054067%" id="linearGradient-7">
            <stop stop-color="#FAF0CB" offset="0%"/>
            <stop stop-color="#FAF0CB" offset="9.34%"/>
            <stop stop-color="#E0E8CC" offset="19.82%"/>
            <stop stop-color="#B5DBCC" offset="36.27%"/>
            <stop stop-color="#A2D5CC" offset="44.51%"/>
            <stop stop-color="#9ACDCB" offset="49.64%"/>
            <stop stop-color="#85B8C8" offset="58.38%"/>
            <stop stop-color="#6297BF" offset="69.66%"/>
            <stop stop-color="#376BAD" offset="82.9%"/>
            <stop stop-color="#2253A1" offset="90.11%"/>
            <stop stop-color="#2253A1" offset="100%"/>
        </linearGradient>
    </defs>
    <g id="Page-1" stroke="none" stroke-width="1" fill="none" fill-rule="evenodd">
        <g id="logo">
            <mask id="mask-2" fill="white">
                <use xlink:href="#path-1"/>
            </mask>
            <g id="SVGID_1_"/>
            <g id="Clipped" mask="url(#mask-2)">
                <g transform="translate(-9.000000, -8.000000)">
                    <mask id="mask-4" fill="white">
                        <use xlink:href="#path-3"/>
                    </mask>
                    <g id="SVGID_5_" stroke="none" fill="none"/>
                    <g id="Clipped" stroke="none" stroke-width="1" fill="none" fill-rule="evenodd" mask="url(#mask-4)">
                        <g transform="translate(9.000000, 8.000000)">
                            <mask id="mask-6" fill="white">
                                <use xlink:href="#path-5"/>
                            </mask>
                            <g id="SVGID_7_" stroke="none" fill="none"/>
                            <polygon id="Shape" stroke="none" fill="url(#linearGradient-7)" fill-rule="nonzero" mask="url(#mask-6)" points="-83.861 70.948 92.436 -76.982 241.379 100.521 65.083 248.453"/>
                        </g>
                    </g>
                </g>
            </g>
        </g>
    </g>
</svg>